<?xml version="1.0" encoding="utf-8"?>
<!-- Generator: Adobe Illustrator 22.0.0, SVG Export Plug-In . SVG Version: 6.00 Build 0)  -->
<svg version="1.1" id="xo-logo" xmlns="http://www.w3.org/2000/svg" xmlns:xlink="http://www.w3.org/1999/xlink" x="0px" y="0px"
	 viewBox="0 0 64 64" style="enable-background:new 0 0 64 64;" xml:space="preserve">
<style type="text/css">
	.st0{fill:#02A8F3;}
	.st1{fill:#FFFFFF;}
</style>
<rect x="0" class="st0" width="64" height="64"/>
<path class="st1" d="M40.083,32.057c0-6.082,4.57-11.408,11.282-11.408s11.219,5.263,11.219,11.408
	c0,6.082-4.57,11.408-11.282,11.408S40.083,38.202,40.083,32.057z M59.999,32.057c0-5.011-3.656-9.107-8.698-9.107
	s-8.635,4.034-8.635,9.107c0,5.011,3.656,9.107,8.698,9.107S59.999,37.131,59.999,32.057z"/>
<rect x="31.578" y="10.399" class="st1" width="1.782" height="43.202"/>
<polygon class="st1" points="23.322,22.931 21.495,21.103 12.369,30.229 3.243,21.103 1.416,22.931 10.542,32.057 1.416,41.183 
	3.243,43.01 12.369,33.884 21.495,43.01 23.322,41.183 14.196,32.057 "/>
</svg>
