<svg version="1.1" id="xo-logo" xmlns="http://www.w3.org/2000/svg" xmlns:xlink="http://www.w3.org/1999/xlink" x="0px" y="0px"
	 viewBox="0 0 105.052 74.521" xml:space="preserve" width="100%" height="100%">
<style type="text/css">
	.letterO {fill:#5A5B5D;}
	.letterX, .divider{fill:#383738;}
</style>
<path class="letterO" d="M66.618,37.313c0-10.479,7.873-19.655,19.438-19.655s19.329,9.067,19.329,19.655
	c0,10.479-7.873,19.655-19.438,19.655S66.618,47.901,66.618,37.313z M100.932,37.313c0-8.633-6.298-15.691-14.985-15.691
	S71.07,28.572,71.07,37.313c0,8.633,6.298,15.691,14.986,15.691S100.932,46.055,100.932,37.313z"/>
<rect x="51.965" class="divider" width="3.07" height="74.431"/>
<polygon class="letterX" points="37.742,21.591 34.594,18.442 18.871,34.165 3.148,18.442 0,21.591 15.723,37.313 0,53.036
	3.148,56.184 18.871,40.462 34.594,56.184 37.742,53.036 22.019,37.313 "/>
</svg>
